<?xml version="1.0" encoding="iso-8859-1"?>
<!-- Generator: Adobe Illustrator 19.0.0, SVG Export Plug-In . SVG Version: 6.00 Build 0)  -->
<svg version="1.1" id="Layer_1" xmlns="http://www.w3.org/2000/svg" xmlns:xlink="http://www.w3.org/1999/xlink" x="0px" y="0px"
	 viewBox="0 0 480 480" style="enable-background:new 0 0 480 480;" xml:space="preserve">
<g>
	<g>
		<path d="M464,432H16c-8.848,0-16,7.152-16,16c0,8.848,7.152,16,16,16h448c8.848,0,16-7.152,16-16C480,439.152,472.848,432,464,432
			z"/>
	</g>
</g>
<g>
	<g>
		<path d="M208,224h-16c-8.848,0-16,7.152-16,16c0,8.848,7.152,16,16,16h16c8.848,0,16-7.152,16-16S216.848,224,208,224z"/>
	</g>
</g>
<g>
	<g>
		<path d="M336,16H144c-8.848,0-16,7.152-16,16v416c0,8.848,7.152,16,16,16s16-7.152,16-16V48h160v400c0,8.848,7.152,16,16,16
			c8.848,0,16-7.152,16-16V32C352,23.152,344.848,16,336,16z"/>
	</g>
</g>
<g>
</g>
<g>
</g>
<g>
</g>
<g>
</g>
<g>
</g>
<g>
</g>
<g>
</g>
<g>
</g>
<g>
</g>
<g>
</g>
<g>
</g>
<g>
</g>
<g>
</g>
<g>
</g>
<g>
</g>
</svg>
